<svg width="97" height="88" viewBox="0 0 97 88" fill="none" xmlns="http://www.w3.org/2000/svg">
<path d="M96.4863 0C96.4863 8.79029 96.4863 17.5806 96.4863 26.6373C93.5697 26.9753 90.653 27.3134 87.648 27.6618C87.3949 28.4053 87.1417 29.1488 86.8808 29.9149C85.6325 32.9077 84.1715 35.1496 82.2469 37.7148C81.6494 38.5243 81.0519 39.3339 80.4363 40.168C79.8995 40.7742 79.3628 41.3804 78.8098 42.0049C78.1617 42.0049 77.5135 42.0049 76.8457 42.0049C76.6508 42.5701 76.4559 43.1354 76.255 43.7178C74.3209 47.0769 71.5671 49.1442 68.6213 51.4816C68.0012 51.9788 67.3812 52.4759 66.7423 52.9881C52.3042 64.457 25.5097 85.5572 6.13987 82.9853C3.38919 80.8018 1.61894 79.227 0.618606 75.7207C0.0965498 71.5255 0.0879735 67.3779 0.0827596 63.1514C0.079491 62.2255 0.0762224 61.2995 0.0728548 60.3455C0.0678927 58.389 0.0655791 56.4326 0.0657371 54.4761C0.063597 51.5061 0.04577 48.5366 0.027137 45.5667C0.0242539 43.6591 0.022306 41.7514 0.0213829 39.8438C0.0143266 38.9663 0.0072702 38.0887 0 37.1846C0.051472 22.8017 0.0514719 22.8017 4.60545 17.9289C11.0554 13.99 18.3594 14.6258 25.4889 16.14C32.3382 18.0147 39.0615 20.2338 45.7316 22.7113C51.5071 24.5794 57.106 24.7752 63.0974 24.7803C63.8645 24.7929 64.6316 24.8054 65.422 24.8183C69.953 24.8303 73.5631 24.3431 77.8278 22.5392C77.8278 20.8488 77.8278 19.1583 77.8278 17.4167C74.9112 16.4024 71.9945 15.3881 68.9895 14.3431C71.7741 11.4381 73.6135 10.2332 77.0951 8.50423C78.0958 8.00568 79.0965 7.50714 80.1275 6.99348C81.1712 6.48173 82.2149 5.96997 83.2903 5.44271C84.8616 4.65725 84.8616 4.65725 86.4646 3.85592C94.2564 0 94.2564 0 96.4863 0ZM36.5827 39.9559C36.5827 46.3796 36.5827 52.8032 36.5827 59.4216C40.2337 58.1519 43.2988 57.0846 46.6484 55.3235C47.6282 54.8164 47.6282 54.8164 48.6278 54.299C50.5004 53.275 50.5004 53.275 52.2951 51.2255C52.5146 48.6849 52.5146 48.6849 51.3131 46.1029C46.842 42.9634 42.0815 39.9559 36.5827 39.9559Z" fill="#10B981"/>
<path d="M87.6483 37.907C87.9723 37.907 88.2964 37.907 88.6303 37.907C88.7451 42.0261 88.8144 46.1448 88.8758 50.2651C88.9087 51.4266 88.9416 52.5882 88.9755 53.7849C89.0525 60.6724 88.8879 65.2198 84.7022 70.6913C82.4121 72.4041 82.4121 72.4041 79.9762 73.5087C79.1065 73.9128 78.2368 74.3169 77.3408 74.7333C76.1237 75.2682 76.1237 75.2682 74.8819 75.8138C73.7882 76.3632 72.6945 76.9126 71.5676 77.4787C66.559 79.4607 61.4391 80.7147 56.2234 81.9609C55.575 82.1224 54.9265 82.2838 54.2584 82.4501C48.4051 83.8715 42.5362 84.8341 36.5829 85.6748C35.2081 85.8808 35.2081 85.8808 33.8056 86.091C28.127 86.9018 22.6734 87.2182 16.9424 87.0835C18.4992 83.835 21.7015 83.0037 24.7372 81.5127C40.1326 73.6934 54.2014 63.7843 68.0077 53.2746C68.8421 52.6397 69.6765 52.0048 70.5362 51.3507C79.4378 45.0593 79.4378 45.0593 87.6483 37.907Z" fill="#10B981"/>
</svg>
