<svg width="325" height="88" viewBox="0 0 325 88" fill="none" xmlns="http://www.w3.org/2000/svg">
<path d="M96.4863 0C96.4863 8.79029 96.4863 17.5806 96.4863 26.6373C93.5697 26.9753 90.653 27.3134 87.648 27.6618C87.3949 28.4053 87.1417 29.1488 86.8808 29.9149C85.6325 32.9077 84.1715 35.1496 82.2469 37.7148C81.6494 38.5243 81.0519 39.3339 80.4363 40.168C79.8995 40.7742 79.3628 41.3804 78.8098 42.0049C78.1617 42.0049 77.5135 42.0049 76.8457 42.0049C76.6508 42.5701 76.4559 43.1354 76.255 43.7178C74.3209 47.0769 71.5671 49.1442 68.6213 51.4816C68.0012 51.9788 67.3812 52.4759 66.7423 52.9881C52.3042 64.457 25.5097 85.5572 6.13987 82.9853C3.38919 80.8018 1.61894 79.227 0.618606 75.7207C0.0965498 71.5255 0.0879735 67.3779 0.0827596 63.1514C0.079491 62.2255 0.0762224 61.2995 0.0728548 60.3455C0.0678927 58.389 0.0655791 56.4326 0.0657371 54.4761C0.063597 51.5061 0.04577 48.5366 0.027137 45.5667C0.0242539 43.6591 0.022306 41.7514 0.0213829 39.8438C0.0143266 38.9663 0.0072702 38.0887 0 37.1846C0.051472 22.8017 0.0514719 22.8017 4.60545 17.9289C11.0554 13.99 18.3594 14.6258 25.4889 16.14C32.3382 18.0147 39.0615 20.2338 45.7316 22.7113C51.5071 24.5794 57.106 24.7752 63.0974 24.7803C63.8645 24.7929 64.6316 24.8054 65.422 24.8183C69.953 24.8303 73.5631 24.3431 77.8278 22.5392C77.8278 20.8488 77.8278 19.1583 77.8278 17.4167C74.9112 16.4024 71.9945 15.3881 68.9895 14.3431C71.7741 11.4381 73.6135 10.2332 77.0951 8.50423C78.0958 8.00568 79.0965 7.50714 80.1275 6.99348C81.1712 6.48173 82.2149 5.96997 83.2903 5.44271C84.8616 4.65725 84.8616 4.65725 86.4646 3.85592C94.2564 0 94.2564 0 96.4863 0ZM36.5827 39.9559C36.5827 46.3796 36.5827 52.8032 36.5827 59.4216C40.2337 58.1519 43.2988 57.0846 46.6484 55.3235C47.6282 54.8164 47.6282 54.8164 48.6278 54.299C50.5004 53.275 50.5004 53.275 52.2951 51.2255C52.5146 48.6849 52.5146 48.6849 51.3131 46.1029C46.842 42.9634 42.0815 39.9559 36.5827 39.9559Z" fill="#10B981"/>
<path d="M87.6483 37.907C87.9723 37.907 88.2964 37.907 88.6303 37.907C88.7451 42.0261 88.8144 46.1448 88.8758 50.2651C88.9087 51.4266 88.9416 52.5882 88.9755 53.7849C89.0525 60.6724 88.8879 65.2198 84.7022 70.6913C82.4121 72.4041 82.4121 72.4041 79.9762 73.5087C79.1065 73.9128 78.2368 74.3169 77.3408 74.7333C76.1237 75.2682 76.1237 75.2682 74.8819 75.8138C73.7882 76.3632 72.6945 76.9126 71.5676 77.4787C66.559 79.4607 61.4391 80.7147 56.2234 81.9609C55.575 82.1224 54.9265 82.2838 54.2584 82.4501C48.4051 83.8715 42.5362 84.8341 36.5829 85.6748C35.2081 85.8808 35.2081 85.8808 33.8056 86.091C28.127 86.9018 22.6734 87.2182 16.9424 87.0835C18.4992 83.835 21.7015 83.0037 24.7372 81.5127C40.1326 73.6934 54.2014 63.7843 68.0077 53.2746C68.8421 52.6397 69.6765 52.0048 70.5362 51.3507C79.4378 45.0593 79.4378 45.0593 87.6483 37.907Z" fill="#10B981"/>
<path d="M117.109 27.6618C120.026 27.6618 122.942 27.6618 125.947 27.6618C126.304 28.6285 126.304 28.6285 126.669 29.6148C126.998 30.4917 127.327 31.3686 127.666 32.2721C127.985 33.1279 128.304 33.9837 128.633 34.8654C130.199 38.6982 131.986 42.3945 133.804 46.103C134.03 45.5808 134.257 45.0585 134.49 44.5205C135.54 42.1502 136.635 39.8056 137.732 37.4587C138.088 36.6366 138.443 35.8145 138.81 34.9675C141.624 29.0702 141.624 29.0702 144.702 27.9094C146.877 27.6258 146.877 27.6258 150.498 27.6618C152.368 33.7615 153.261 39.8262 154.058 46.167C154.255 47.6538 154.255 47.6538 154.457 49.1705C155.076 53.9869 155.582 58.6473 155.408 63.5197C151.033 64.0268 151.033 64.0268 146.57 64.5442C146.44 63.4705 146.309 62.3968 146.175 61.2906C146 59.8778 145.825 58.4651 145.649 57.0525C145.521 55.9916 145.521 55.9916 145.39 54.9094C145.007 51.8388 144.565 49.049 143.624 46.103C141.68 50.4981 139.735 54.8933 137.732 59.4216C135.463 59.4216 133.195 59.4216 130.858 59.4216C128.932 57.2886 128.932 57.2886 127.543 54.4912C127.07 53.576 126.596 52.6607 126.109 51.7178C124.965 49.1765 124.965 49.1765 123.983 46.103C123.335 51.8505 122.687 57.598 122.019 63.5197C119.103 63.5197 116.186 63.5197 113.181 63.5197C114.211 51.5148 115.306 39.5718 117.109 27.6618Z" fill="#525252"/>
<path d="M195.671 37.7788C196.502 37.7973 197.332 37.8158 198.188 37.8349C198.978 37.8586 199.768 37.8824 200.581 37.9069C201.878 37.9069 203.174 37.9069 204.51 37.9069C207.128 37.9069 209.747 37.9069 212.366 37.9069C212.423 42.2397 212.458 46.5723 212.489 50.9054C212.513 52.7467 212.513 52.7467 212.538 54.6252C212.545 55.8105 212.551 56.9958 212.558 58.217C212.568 59.3061 212.578 60.3953 212.589 61.5174C212.36 64.6274 211.661 66.8557 210.402 69.6667C209.754 69.6667 209.105 69.6667 208.438 69.6667C208.438 70.3429 208.438 71.0191 208.438 71.7157C204.732 74.2464 200.987 74.0696 196.715 74.0209C195.679 74.0328 195.679 74.0328 194.622 74.0449C190.61 74.0292 187.495 73.5718 183.887 71.7157C184.211 69.6872 184.535 67.6587 184.869 65.5687C188.552 64.4161 188.552 64.4161 190.761 65.5687C192.434 65.8004 194.113 65.9876 195.794 66.145C196.688 66.2308 197.581 66.3166 198.502 66.4051C199.188 66.4672 199.875 66.5292 200.581 66.5932C200.581 65.917 200.581 65.2408 200.581 64.5442C201.23 64.5442 201.878 64.5442 202.545 64.5442C202.221 63.868 201.897 63.1918 201.563 62.4951C200.915 62.8332 200.267 63.1713 199.599 63.5197C194.011 63.9083 190.777 63.5296 185.851 60.4461C185.851 59.7699 185.851 59.0938 185.851 58.3971C185.203 58.3971 184.555 58.3971 183.887 58.3971C182.178 54.831 182.459 51.0264 182.905 47.1275C184.101 43.6871 185.608 40.7835 188.628 38.7433C191.123 37.765 193.014 37.7028 195.671 37.7788ZM193.4 46.8073C191.501 49.05 191.501 49.05 191.682 51.8659C192.545 54.476 192.545 54.476 194.935 55.7718C198.195 56.4675 199.64 55.8987 202.545 54.2991C203.775 53.2247 203.775 53.2247 203.834 50.8413C203.779 48.0496 203.779 48.0496 201.809 46.2951C198.47 44.4565 196.45 44.486 193.4 46.8073Z" fill="#535353"/>
<path d="M258.091 39.0595C261.123 41.4923 262.181 43.3593 263.431 47.1275C263.98 52.4707 263.328 55.9453 260.485 60.4462C256.308 64.2753 251.124 64.5442 245.755 64.5442C241.252 63.5692 238.208 61.794 234.952 58.3971C232.922 53.9691 232.506 50.7819 233.97 46.103C239.934 37.05 248.104 35.7692 258.091 39.0595ZM244.527 46.2311C242.484 48.1146 242.484 48.1146 242.563 51.4177C242.644 52.3685 242.725 53.3194 242.808 54.2991C243.457 54.2991 244.105 54.2991 244.773 54.2991C244.773 54.9753 244.773 55.6515 244.773 56.3481C249.12 56.6606 249.12 56.6606 252.997 54.8114C253.524 54.3042 254.05 53.7971 254.593 53.2746C254.331 50.2682 254.331 50.2682 253.611 47.1275C250.191 44.7489 248.285 44.2706 244.527 46.2311Z" fill="#555555"/>
<path d="M309.034 37.4587C310.308 37.4389 311.583 37.4191 312.897 37.3987C316.968 37.9793 318.504 39.0035 321.37 42.005C324.207 46.4446 324.56 49.618 323.764 54.8754C321.837 59.6833 319.274 62.2888 314.558 64.3521C308.474 64.9291 304.236 64.5832 298.784 61.4707C296.127 59.1252 295.02 57.5316 294.518 53.9189C294.344 48.8271 294.527 45.0069 297.802 40.9805C301.294 37.4325 304.269 37.4636 309.034 37.4587ZM304.676 46.103C303.181 48.38 303.181 48.38 302.712 51.2256C303.455 54.2257 303.455 54.2257 305.658 56.3481C309.137 56.9458 309.137 56.9458 312.532 56.3481C313.18 55.6719 313.828 54.9958 314.496 54.2991C314.262 49.1406 314.262 49.1406 311.55 45.0785C307.726 44.8625 307.726 44.8625 304.676 46.103Z" fill="#555555"/>
<path d="M274.233 38.9314C275.206 38.5933 276.178 38.2552 277.179 37.9069C279.04 37.8367 280.903 37.82 282.765 37.8428C283.741 37.8521 284.717 37.8613 285.722 37.8709C286.841 37.8887 286.841 37.8887 287.982 37.9069C288.306 38.9211 288.63 39.9354 288.964 40.9804C289.612 40.9804 290.26 40.9804 290.928 40.9804C292.601 46.2663 293.11 50.6544 293.015 56.284C293.006 56.9846 292.997 57.6852 292.988 58.4071C292.965 60.1114 292.93 61.8156 292.892 63.5196C289.651 63.5196 286.41 63.5196 283.072 63.5196C283.083 62.7655 283.094 62.0114 283.106 61.2345C283.115 60.2348 283.124 59.235 283.133 58.205C283.144 57.2185 283.156 56.2319 283.167 55.2155C283.076 52.3978 282.7 49.8682 282.09 47.1275C279.821 46.7894 277.553 46.4513 275.215 46.103C274.101 49.8014 274.135 53.2584 274.172 57.1164C274.185 58.9152 274.185 58.9152 274.199 60.7502C274.21 61.6641 274.222 62.578 274.233 63.5196C270.277 64.581 268.684 64.4108 264.413 63.5196C264.413 55.4055 264.413 47.2914 264.413 38.9314C268.834 38.009 270.164 38.0376 274.233 38.9314Z" fill="#515151"/>
<path d="M155.408 37.9069C163.019 37.7788 163.019 37.7788 165.228 38.9314C165.995 40.8012 166.68 42.7078 167.315 44.6302C167.662 45.6669 168.009 46.7036 168.366 47.7718C168.627 48.5734 168.888 49.375 169.157 50.201C171.4 47.8604 172.074 45.9745 173.207 42.9013C173.554 41.969 173.901 41.0366 174.259 40.0759C174.519 39.3601 174.78 38.6443 175.049 37.9069C177.965 37.9069 180.882 37.9069 183.887 37.9069C182.881 44.0804 180.479 49.5711 178.179 55.3235C177.748 56.4302 177.317 57.5369 176.873 58.6772C176.447 59.7469 176.021 60.8167 175.582 61.9188C175.197 62.8895 174.813 63.8602 174.416 64.8603C172.658 68.5006 170.762 71.903 167.193 73.7647C165.516 73.8364 163.837 73.8512 162.16 73.8287C161.266 73.8195 160.372 73.8102 159.451 73.8007C158.765 73.7888 158.079 73.777 157.372 73.7647C157.696 71.3981 158.02 69.0315 158.354 66.5931C159.975 66.255 161.595 65.917 163.264 65.5686C164.097 63.9004 164.097 63.9004 164.246 61.4706C163.256 58.7937 162.221 56.3385 160.993 53.7868C160.678 53.1066 160.362 52.4265 160.036 51.7257C158.796 49.0628 157.54 46.4194 156.164 43.8298C155.408 42.0049 155.408 42.0049 155.408 37.9069Z" fill="#515151"/>
<path d="M96.4865 0C96.4865 8.79029 96.4865 17.5806 96.4865 26.6373C94.1167 26.8274 91.747 27.0176 89.3054 27.2135C88.5632 27.2764 87.821 27.3392 87.0563 27.4039C83.9535 27.6358 81.7906 27.6738 78.81 26.6373C77.1699 26.9604 75.5334 27.3043 73.8999 27.6618C69.9056 27.7431 65.9221 27.5207 61.9314 27.3416C60.8459 27.3053 59.7604 27.269 58.642 27.2316C57.6072 27.1873 56.5723 27.1431 55.5061 27.0975C54.0873 27.0394 54.0873 27.0394 52.6398 26.9802C50.3312 26.6373 50.3312 26.6373 48.3672 24.5882C49.0503 24.599 49.7334 24.6097 50.4372 24.6208C53.5525 24.6635 56.6678 24.6901 59.7832 24.7163C60.858 24.7335 61.9327 24.7506 63.04 24.7683C70.6148 24.8191 70.6148 24.8191 77.828 22.5392C77.828 20.8488 77.828 19.1583 77.828 17.4167C74.9114 16.4024 71.9947 15.3881 68.9897 14.3431C71.7743 11.4381 73.6137 10.2332 77.0953 8.50423C78.096 8.00568 79.0967 7.50714 80.1277 6.99348C81.1714 6.48173 82.2151 5.96997 83.2905 5.44271C84.338 4.91907 85.3855 4.39543 86.4648 3.85592C94.2566 0 94.2566 0 96.4865 0Z" fill="#10B981"/>
<path d="M226.359 37.8429C227.091 37.8475 227.823 37.8521 228.577 37.8569C230.374 37.8689 232.172 37.8873 233.97 37.9069C233.646 40.6116 233.322 43.3163 232.988 46.103C230.396 46.4411 227.803 46.7792 225.132 47.1275C224.084 50.6746 224.05 53.9306 224.088 57.6287C224.097 58.7328 224.106 59.8369 224.115 60.9744C224.127 61.8143 224.138 62.6543 224.15 63.5196C220.909 63.5196 217.668 63.5196 214.33 63.5196C214.33 55.4055 214.33 47.2914 214.33 38.9314C218.442 37.8589 222.165 37.7926 226.359 37.8429Z" fill="#535353"/>
<path d="M211.383 37.907C211.708 37.907 212.032 37.907 212.365 37.907C212.423 42.2397 212.457 46.5724 212.488 50.9055C212.513 52.7468 212.513 52.7468 212.538 54.6253C212.544 55.8106 212.551 56.9959 212.557 58.2171C212.568 59.3062 212.578 60.3953 212.588 61.5175C212.359 64.6275 211.66 66.8558 210.401 69.6668C209.753 69.6668 209.105 69.6668 208.437 69.6668C208.437 70.343 208.437 71.0191 208.437 71.7158C204.731 74.2465 200.987 74.0697 196.714 74.021C195.679 74.0328 195.679 74.0328 194.622 74.045C190.61 74.0293 187.494 73.5718 183.887 71.7158C184.211 69.6873 184.535 67.6587 184.869 65.5687C188.551 64.4162 188.551 64.4162 190.761 65.5687C192.434 65.8005 194.113 65.9877 195.794 66.145C196.688 66.2309 197.581 66.3167 198.502 66.4052C199.188 66.4672 199.874 66.5293 200.581 66.5933C200.581 65.9171 200.581 65.2409 200.581 64.5442C201.472 64.1216 202.364 63.699 203.282 63.2636C206.274 61.5829 208.154 59.9881 210.401 57.3727C210.725 59.0631 211.05 60.7536 211.383 62.4952C211.383 54.3811 211.383 46.267 211.383 37.907Z" fill="#626262"/>
<path d="M211.384 37.9069C211.384 46.021 211.384 54.1351 211.384 62.4951C210.735 62.157 210.087 61.8189 209.419 61.4706C209.419 59.104 209.419 56.7374 209.419 54.299C208.67 54.0666 207.921 53.8342 207.149 53.5947C203.936 51.9577 203.256 50.3375 201.563 47.1275C200.591 46.4513 199.619 45.7751 198.617 45.0784C198.941 43.0499 199.265 41.0214 199.599 38.9314C203.788 37.872 206.84 37.9069 211.384 37.9069Z" fill="#4A4A4A"/>
<path d="M288.963 44.054C289.936 44.392 290.908 44.7301 291.91 45.0785C293.094 48.7858 292.998 52.1733 292.953 56.0279C292.948 56.747 292.944 57.4661 292.94 58.207C292.928 59.9779 292.91 61.7488 292.892 63.5196C289.651 63.5196 286.41 63.5196 283.071 63.5196C283.255 50.6182 283.255 50.6182 285.212 47.0835C286.57 45.7188 286.57 45.7188 288.963 44.054Z" fill="#5B5B5B"/>
<path d="M33.6368 76.8383C35.6009 77.8628 35.6009 77.8628 37.5649 80.9363C37.5649 81.6125 37.5649 82.2886 37.5649 82.9853C38.3751 82.8163 39.1853 82.6472 40.02 82.4731C43.8624 81.9004 47.4361 81.8911 51.3133 81.9608C48.3917 83.6638 45.8948 84.4108 42.5863 84.8823C41.6641 85.0143 40.7419 85.1464 39.7918 85.2825C38.8341 85.4119 37.8765 85.5413 36.8898 85.6747C35.9511 85.812 35.0125 85.9494 34.0454 86.0909C28.29 86.8931 22.7477 87.2206 16.9424 87.0834C18.6381 83.5453 22.4177 82.45 25.7192 80.7442C26.812 80.1588 26.812 80.1588 27.9269 79.5616C29.7991 78.5859 31.7158 77.7045 33.6368 76.8383Z" fill="#10B981"/>
<path d="M71.9358 14.3431C75.1888 14.023 75.1888 14.023 78.81 14.3431C80.7741 16.7123 80.7741 16.7123 81.7561 19.4657C81.432 20.48 81.1079 21.4942 80.7741 22.5392C80.1259 22.5392 79.4778 22.5392 78.81 22.5392C78.4859 24.2297 78.1619 25.9201 77.828 27.6618C73.9476 27.566 70.0677 27.4573 66.188 27.3366C64.2182 27.2781 62.2481 27.2298 60.2781 27.1815C59.0438 27.1419 57.8096 27.1023 56.538 27.0615C55.3963 27.0293 54.2546 26.9971 53.0783 26.9639C50.3312 26.6373 50.3312 26.6373 48.3672 24.5882C49.3918 24.6043 49.3918 24.6043 50.4372 24.6208C53.5525 24.6635 56.6678 24.6901 59.7832 24.7163C60.858 24.7335 61.9327 24.7506 63.04 24.7683C70.6148 24.8191 70.6148 24.8191 77.828 22.5392C77.828 20.8488 77.828 19.1583 77.828 17.4167C75.8836 16.7405 73.9391 16.0643 71.9358 15.3677C71.9358 15.0296 71.9358 14.6915 71.9358 14.3431Z" fill="#10B981"/>
<path d="M88.63 37.907C88.7448 42.0261 88.8141 46.1448 88.8755 50.2651C88.9249 52.0074 88.9249 52.0074 88.9753 53.7849C89.0526 60.7055 88.77 65.1176 84.7019 70.6913C82.1855 72.7403 82.1855 72.7403 79.7918 73.7648C78.8196 73.4267 77.8474 73.0886 76.8457 72.7403C77.4938 72.7403 78.142 72.7403 78.8098 72.7403C78.8098 72.0641 78.8098 71.388 78.8098 70.6913C79.4579 70.6913 80.106 70.6913 80.7738 70.6913C80.7738 70.0151 80.7738 69.3389 80.7738 68.6423C82.0701 68.3042 83.3664 67.9661 84.7019 67.6178C84.6614 66.8148 84.6209 66.0118 84.5792 65.1846C84.7019 62.4952 84.7019 62.4952 86.666 60.4462C86.887 57.4994 86.9844 54.6838 86.9728 51.7379C86.9887 50.9336 87.0045 50.1293 87.0208 49.3007C87.0583 46.6954 87.0583 46.6954 86.666 43.0295C85.6938 42.3534 84.7216 41.6772 83.7199 40.9805C87.5252 37.907 87.5252 37.907 88.63 37.907Z" fill="#10B981"/>
<path d="M1.22998 74.7893C1.55405 75.4655 1.87812 76.1417 2.21201 76.8383C2.86014 76.8383 3.50828 76.8383 4.17606 76.8383C4.17606 77.8526 4.17606 78.8669 4.17606 79.9119C12.4628 79.5577 12.4628 79.5577 20.3795 77.2225C23.8675 75.793 24.4367 75.7031 27.7447 76.8383C12.9736 83.8927 12.9736 83.8927 6.14011 82.9854C3.25541 80.6162 3.25541 80.6162 1.22998 77.8628C1.22998 76.8486 1.22998 75.8343 1.22998 74.7893Z" fill="#10B981"/>
<path d="M73.9001 49.1765C74.2241 49.8527 74.5482 50.5289 74.8821 51.2255C74.234 51.2255 73.5858 51.2255 72.9181 51.2255C72.9181 51.9017 72.9181 52.5779 72.9181 53.2746C71.8648 53.8451 70.8116 54.4156 69.7265 55.0034C65.7443 57.3654 63.527 60.4339 60.8882 64.288C57.9983 66.4416 54.8049 66.2946 51.3135 66.5932C54.3855 63.1538 57.7846 60.5031 61.502 57.8848C62.0438 57.4979 62.5856 57.1109 63.1438 56.7123C66.7103 54.1706 70.3031 51.6707 73.9001 49.1765Z" fill="#10B981"/>
<path d="M96.4866 0C96.4866 8.79029 96.4866 17.5806 96.4866 26.6373C90.1672 27.1444 90.1672 27.1444 83.7202 27.6618C83.7202 26.9856 83.7202 26.3094 83.7202 25.6127C87.609 25.6127 91.4979 25.6127 95.5045 25.6127C95.1805 18.1748 94.8564 10.7369 94.5225 3.07353C93.2262 2.73544 91.93 2.39735 90.5944 2.04902C94.277 0 94.277 0 96.4866 0Z" fill="#10B981"/>
<path d="M50.3313 45.0785C52.7618 46.0928 52.7618 46.0928 55.2414 47.1275C55.2414 48.1418 55.2414 49.156 55.2414 50.201C54.5933 50.201 53.9451 50.201 53.2774 50.201C53.2774 52.2296 53.2774 54.2581 53.2774 56.3481C51.0089 56.3481 48.7404 56.3481 46.4032 56.3481C46.0791 57.3624 45.755 58.3766 45.4212 59.4216C42.8286 59.4216 40.2361 59.4216 37.5649 59.4216C38.1181 59.1337 38.6713 58.8458 39.2413 58.5492C40.3559 57.9668 40.3559 57.9668 41.493 57.3726C42.2463 56.9843 42.9995 56.5961 43.7755 56.196C44.5414 55.7813 45.3072 55.3667 46.0963 54.9394C46.8698 54.53 47.6432 54.1206 48.4401 53.6988C50.4625 52.4093 50.4625 52.4093 51.1484 50.2251C51.4612 47.9428 51.4612 47.9428 50.3313 45.0785Z" fill="#10B981"/>
<path d="M30.6908 17.4167C30.6908 17.7547 30.6908 18.0928 30.6908 18.4412C20.4034 18.6187 20.4034 18.6187 15.6535 17.8009C11.8404 17.3963 9.63283 17.9171 6.14014 19.4657C6.46421 18.4514 6.78827 17.4372 7.12216 16.3922C14.7214 13.7495 23.1251 15.3119 30.6908 17.4167Z" fill="#10B981"/>
<path d="M196.653 56.348C199.795 56.257 202.474 56.4396 205.492 57.3726C204.51 60.4461 204.51 60.4461 201.563 62.4951C198.924 62.6232 198.924 62.6232 196.653 62.4951C196.653 60.4666 196.653 58.438 196.653 56.348Z" fill="#4A4A4A"/>
<path d="M51.3131 61.4707C51.9613 61.8088 52.6094 62.1469 53.2772 62.4952C48.8071 66.0166 44.7485 68.5798 39.5288 70.6913C39.5288 69.677 39.5288 68.6628 39.5288 67.6178C40.1769 67.6178 40.8251 67.6178 41.4929 67.6178C41.8169 66.9416 42.141 66.2654 42.4749 65.5687C44.6226 63.3281 45.4979 63.1302 48.367 62.4952C49.3392 62.1571 50.3115 61.819 51.3131 61.4707Z" fill="#10B981"/>
<path d="M74.8817 46.103C68.0762 51.6814 68.0762 51.6814 61.1333 57.3726C61.1333 54.299 61.1333 54.299 62.4222 52.5702C64.0794 51.2255 64.0794 51.2255 67.0255 51.2255C67.3495 49.5351 67.6736 47.8446 68.0075 46.103C72.6721 44.9504 72.6721 44.9504 74.8817 46.103Z" fill="#10B981"/>
<path d="M88.6303 37.907C88.6303 46.0211 88.6303 54.1352 88.6303 62.4952C88.3063 62.4952 87.9822 62.4952 87.6483 62.4952C87.634 61.9163 87.6197 61.3373 87.6049 60.7408C87.5319 58.1233 87.4369 55.5072 87.3414 52.8904C87.3193 51.9792 87.2971 51.0679 87.2743 50.1291C87.2395 49.2574 87.2047 48.3858 87.1688 47.4878C87.1431 46.683 87.1174 45.8782 87.0909 45.049C86.8147 42.6193 86.8147 42.6193 83.7202 40.9805C87.5256 37.907 87.5256 37.907 88.6303 37.907Z" fill="#10B981"/>
<path d="M30.6909 18.4412C36.7522 19.7118 42.5409 21.4082 48.3674 23.5637C48.3674 23.9018 48.3674 24.2399 48.3674 24.5882C39.1265 23.6011 39.1265 23.6011 34.619 22.5392C34.619 21.863 34.619 21.1868 34.619 20.4902C33.3227 20.1521 32.0265 19.814 30.6909 19.4657C30.6909 19.1276 30.6909 18.7895 30.6909 18.4412Z" fill="#10B981"/>
<path d="M146.57 34.8334C146.246 36.1858 145.922 37.5381 145.588 38.9315C143.747 39.5718 143.747 39.5718 141.66 39.956C141.012 39.2798 140.364 38.6036 139.696 37.907C139.696 36.8927 139.696 35.8784 139.696 34.8334C142.773 33.7633 143.614 33.8763 146.57 34.8334Z" fill="#4B4B4B"/>
<path d="M310.568 38.9314C311.216 39.2695 311.865 39.6076 312.532 39.9559C312.532 41.3083 312.532 42.6606 312.532 44.0539C313.181 44.7301 313.829 45.4063 314.496 46.103C311.58 45.7649 308.663 45.4268 305.658 45.0785C308.359 40.084 308.359 40.084 310.568 38.9314Z" fill="#494949"/>
<path d="M94.5226 3.07357C94.5226 4.42592 94.5226 5.77828 94.5226 7.17161C93.6719 6.98143 92.8212 6.79126 91.9448 6.59532C88.5798 6.14026 86.0358 6.43443 82.7383 7.17161C86.9958 3.76632 89.0934 2.95044 94.5226 3.07357Z" fill="#10B981"/>
<path d="M175.049 37.907C175.373 38.5832 175.697 39.2593 176.031 39.956C178.019 40.6241 178.019 40.6241 179.959 40.9805C177.869 43.3785 175.917 44.7784 173.084 46.1031C173.944 39.0596 173.944 39.0596 175.049 37.907Z" fill="#585858"/>
<path d="M80.7741 7.17163C80.7741 8.1859 80.7741 9.20016 80.7741 10.2452C79.3656 10.9352 77.9531 11.6166 76.5391 12.2942C75.3599 12.8647 75.3599 12.8647 74.1569 13.4468C71.9358 14.3432 71.9358 14.3432 68.9897 14.3432C71.2508 11.679 73.4078 10.4015 76.5391 9.02855C77.3328 8.67594 78.1265 8.32332 78.9443 7.96002C79.5481 7.69985 80.1519 7.43968 80.7741 7.17163Z" fill="#10B981"/>
<path d="M33.6366 76.8383C34.2847 77.1763 34.9328 77.5144 35.6006 77.8628C35.6006 78.5389 35.6006 79.2151 35.6006 79.9118C34.3044 79.9118 33.0081 79.9118 31.6725 79.9118C31.6725 80.588 31.6725 81.2641 31.6725 81.9608C29.404 82.2989 27.1356 82.637 24.7983 82.9853C26.0426 80.3891 27.1859 79.9814 29.6471 78.6952C30.3446 78.3214 31.0421 77.9477 31.7608 77.5626C32.3798 77.3236 32.9988 77.0845 33.6366 76.8383Z" fill="#10B981"/>
<path d="M27.7448 76.8383C26.3363 77.5284 24.9238 78.2098 23.5098 78.8874C22.3306 79.4579 22.3306 79.4579 21.1276 80.0399C18.9065 80.9364 18.9065 80.9364 15.9604 80.9364C15.9604 80.2602 15.9604 79.584 15.9604 78.8874C17.1823 78.3397 18.4113 77.8095 19.643 77.2866C20.3266 76.9894 21.0102 76.6923 21.7145 76.3861C24.1114 75.7336 25.4275 76.0162 27.7448 76.8383Z" fill="#10B981"/>
<path d="M82.7383 34.8334C81.5561 37.3881 80.3281 39.6295 78.8102 42.0049C78.162 42.0049 77.5139 42.0049 76.8461 42.0049C76.662 39.5717 76.662 39.5717 76.8461 36.8824C79.7922 34.8334 79.7922 34.8334 82.7383 34.8334Z" fill="#10B981"/>
<path d="M77.8281 20.4902C78.7455 23.5743 78.8538 24.4515 77.8281 27.6618C76.2078 27.3237 74.5874 26.9856 72.918 26.6373C74.2683 24.5883 74.2683 24.5883 75.864 22.5393C76.5122 22.5393 77.1603 22.5393 77.8281 22.5393C77.8281 21.8631 77.8281 21.1869 77.8281 20.4902Z" fill="#10B981"/>
<path d="M142.642 28.6863C145.281 28.3661 145.281 28.3661 147.552 28.6863C147.228 29.7006 146.904 30.7148 146.57 31.7598C145.598 32.0979 144.626 32.436 143.624 32.7843C143.3 33.4605 142.976 34.1367 142.642 34.8333C141.67 34.4953 140.697 34.1572 139.696 33.8088C140.862 31.2476 140.862 31.2476 142.642 28.6863Z" fill="#565656"/>
<path d="M42.4751 40.9805C45.7158 41.3186 48.9565 41.6566 52.2954 42.005C52.2954 42.6812 52.2954 43.3573 52.2954 44.054C50.6996 44.7583 50.6996 44.7583 48.3673 45.0785C45.1757 43.6058 45.1757 43.6058 42.4751 42.005C42.4751 41.6669 42.4751 41.3288 42.4751 40.9805Z" fill="#10B981"/>
<path d="M21.8525 82.9854C23.8166 84.0099 23.8166 84.0099 25.7806 87.0834C22.864 87.0834 19.9474 87.0834 16.9424 87.0834C18.1867 84.4872 19.3058 84.032 21.8525 82.9854Z" fill="#10B981"/>
<path d="M46.4032 55.3236C46.0791 56.676 45.755 58.0283 45.4212 59.4216C42.8286 59.4216 40.2361 59.4216 37.5649 59.4216C38.446 58.9779 38.446 58.9779 39.3449 58.5252C45.312 55.3236 45.312 55.3236 46.4032 55.3236Z" fill="#10B981"/>
<path d="M96.4864 0C96.1623 2.70471 95.8383 5.40941 95.5044 8.19608C95.1803 8.19608 94.8562 8.19608 94.5223 8.19608C94.5223 6.50564 94.5223 4.8152 94.5223 3.07353C93.2261 2.73544 91.9298 2.39735 90.5942 2.04902C94.2768 0 94.2768 0 96.4864 0Z" fill="#10B981"/>
<path d="M43.4573 71.7157C43.4573 72.3919 43.4573 73.0681 43.4573 73.7647C42.4851 74.1028 41.5129 74.4409 40.5112 74.7892C39.1639 76.1145 37.8481 77.4765 36.5831 78.8873C36.259 77.873 35.935 76.8587 35.6011 75.8137C41.2477 71.7157 41.2477 71.7157 43.4573 71.7157Z" fill="#10B981"/>
<path d="M23.8164 82.9854C25.7608 82.9854 27.7052 82.9854 29.7086 82.9854C29.3845 83.9996 29.0604 85.0139 28.7265 86.0589C27.1062 86.0589 25.4859 86.0589 23.8164 86.0589C23.8164 85.0446 23.8164 84.0304 23.8164 82.9854Z" fill="#10B981"/>
<path d="M56.2234 55.3236C56.5475 55.9998 56.8716 56.676 57.2054 57.3726C57.8536 57.7107 58.5017 58.0488 59.1695 58.3971C55.4869 61.4707 55.4869 61.4707 53.2773 61.4707C55.1186 56.4762 55.1186 56.4762 56.2234 55.3236Z" fill="#10B981"/>
<path d="M87.6484 27.6619C85.9299 32.6564 85.9299 32.6564 83.7203 33.8089C83.3962 32.1185 83.0722 30.428 82.7383 28.6864C84.7023 27.6619 84.7023 27.6619 87.6484 27.6619Z" fill="#10B981"/>
</svg>
